<svg width="36" height="36" viewBox="0 0 36 36" fill="none" xmlns="http://www.w3.org/2000/svg">
<circle cx="18" cy="18" r="18" fill="white"/>
<g clip-path="url(#clip0_23_309)">
<path d="M16.8224 0.0281114C16.7451 0.0351419 16.499 0.0597489 16.2775 0.0773253C11.1698 0.537827 6.38552 3.29381 3.35535 7.52972C1.66802 9.88496 0.588824 12.5566 0.181051 15.3864C0.0369246 16.3742 0.0193481 16.6659 0.0193481 18.0053C0.0193481 19.3446 0.0369246 19.6364 0.181051 20.6241C1.1583 27.377 5.96369 33.0507 12.481 35.1528C13.6481 35.5289 14.8784 35.7856 16.2775 35.9402C16.8224 36 19.1776 36 19.7225 35.9402C22.1375 35.6731 24.1834 35.0755 26.2012 34.0455C26.5105 33.8873 26.5703 33.8451 26.5281 33.81C26.5 33.7889 25.1817 32.0207 23.5999 29.8834L20.7244 25.999L17.1212 20.6663C15.1386 17.7346 13.5075 15.3372 13.4934 15.3372C13.4794 15.3336 13.4653 17.7029 13.4583 20.596C13.4477 25.6615 13.4442 25.8654 13.3809 25.985C13.2895 26.1572 13.2192 26.2275 13.0716 26.3048C12.9591 26.3611 12.8607 26.3716 12.3299 26.3716H11.7217L11.56 26.2697C11.4546 26.2029 11.3772 26.115 11.3245 26.0131L11.2507 25.8549L11.2577 18.8067L11.2682 11.7551L11.3772 11.618C11.4335 11.5442 11.553 11.4493 11.6374 11.4036C11.7815 11.3333 11.8377 11.3262 12.4459 11.3262C13.163 11.3262 13.2825 11.3543 13.4688 11.5582C13.5215 11.6145 15.4725 14.5533 17.8067 18.0931C20.1408 21.633 23.3327 26.4665 24.9005 28.8394L27.7479 33.1526L27.892 33.0577C29.1681 32.2281 30.5179 31.047 31.5866 29.8166C33.861 27.2048 35.3268 24.0199 35.819 20.6241C35.9631 19.6364 35.9807 19.3446 35.9807 18.0053C35.9807 16.6659 35.9631 16.3742 35.819 15.3864C34.8417 8.63352 30.0363 2.95986 23.519 0.857718C22.3695 0.485098 21.1462 0.228482 19.7752 0.07381C19.4378 0.0386572 17.1142 -1.08927e-05 16.8224 0.0281114ZM24.1834 10.9044C24.3521 10.9888 24.4892 11.1505 24.5384 11.3192C24.5666 11.4106 24.5736 13.3651 24.5666 17.7697L24.556 24.0902L23.4417 22.3818L22.3238 20.6734V16.0789C22.3238 13.1085 22.3379 11.4387 22.359 11.3579C22.4152 11.161 22.5382 11.0063 22.707 10.9149C22.8511 10.8411 22.9038 10.8341 23.4557 10.8341C23.976 10.8341 24.0674 10.8411 24.1834 10.9044Z" fill="black"/>
<path d="M27.5721 33.2299C27.4491 33.3073 27.4104 33.36 27.5194 33.3003C27.5967 33.2546 27.7233 33.1596 27.7022 33.1561C27.6916 33.1561 27.6319 33.1913 27.5721 33.2299ZM27.3296 33.3881C27.2663 33.4373 27.2663 33.4409 27.3436 33.4022C27.3858 33.3811 27.421 33.3565 27.421 33.3495C27.421 33.3213 27.4034 33.3284 27.3296 33.3881ZM27.1538 33.4936C27.0905 33.5428 27.0905 33.5463 27.1679 33.5077C27.21 33.4866 27.2452 33.462 27.2452 33.4549C27.2452 33.4268 27.2276 33.4338 27.1538 33.4936ZM26.978 33.5991C26.9148 33.6483 26.9148 33.6518 26.9921 33.6131C27.0343 33.592 27.0694 33.5674 27.0694 33.5604C27.0694 33.5323 27.0519 33.5393 26.978 33.5991ZM26.7109 33.7397C26.5773 33.81 26.5843 33.8381 26.7179 33.7713C26.7777 33.7397 26.8234 33.708 26.8234 33.701C26.8234 33.6764 26.8198 33.6799 26.7109 33.7397Z" fill="black"/>
</g>
<defs>
<clipPath id="clip0_23_309">
<rect width="36" height="36" fill="white"/>
</clipPath>
</defs>
</svg>
