<svg width="36" height="36" viewBox="0 0 36 36" fill="none" xmlns="http://www.w3.org/2000/svg">
<g clip-path="url(#clip0_23_302)">
<path d="M0 18V0H36V36H0" fill="#007ACC"/>
<path d="M7.89301 18.063V19.53H12.573V32.85H15.894V19.53H20.574V18.09C20.574 17.28 20.574 16.623 20.538 16.605C20.538 16.578 17.685 16.569 14.22 16.569L7.92001 16.596V18.072L7.89301 18.063ZM28.926 16.56C29.844 16.776 30.546 17.19 31.176 17.847C31.509 18.207 32.004 18.837 32.04 18.999C32.04 19.053 30.483 20.106 29.538 20.691C29.502 20.718 29.358 20.565 29.214 20.331C28.746 19.665 28.269 19.377 27.522 19.323C26.442 19.251 25.722 19.818 25.722 20.763C25.722 21.051 25.776 21.213 25.884 21.447C26.127 21.942 26.577 22.239 27.972 22.851C30.546 23.958 31.662 24.687 32.337 25.731C33.102 26.901 33.273 28.737 32.76 30.114C32.184 31.617 30.78 32.634 28.773 32.967C28.143 33.075 26.703 33.057 26.028 32.94C24.588 32.67 23.211 31.95 22.365 31.023C22.032 30.663 21.393 29.7 21.429 29.637L21.771 29.421L23.121 28.638L24.138 28.044L24.372 28.359C24.669 28.827 25.335 29.457 25.722 29.673C26.892 30.276 28.458 30.195 29.232 29.493C29.565 29.187 29.709 28.863 29.709 28.413C29.709 27.999 29.646 27.81 29.439 27.495C29.151 27.099 28.575 26.775 26.955 26.055C25.092 25.263 24.3 24.759 23.562 23.985C23.139 23.517 22.752 22.788 22.572 22.185C22.437 21.663 22.392 20.385 22.518 19.872C22.905 18.072 24.264 16.812 26.208 16.452C26.838 16.326 28.323 16.38 28.944 16.542L28.926 16.56Z" fill="white"/>
</g>
<defs>
<clipPath id="clip0_23_302">
<rect width="36" height="36" fill="white"/>
</clipPath>
</defs>
</svg>
